<svg xmlns="http://www.w3.org/2000/svg" viewBox="0 0 159 159"><defs><style>.cls-1{fill:none;stroke:#fff;stroke-miterlimit:10;stroke-width:5px;}.cls-2{fill:#231f20;}.cls-3{fill:#fff;}</style></defs><title>Asset 1</title><g id="Layer_2" data-name="Layer 2"><g id="Layer_1-2" data-name="Layer 1"><path class="cls-1" d="M84.64,45a1,1,0,0,0-1.61.21c-1.32,1.5-2.63,3-4.08,4.39S77.5,53.07,77,54.84c2.17-1,4.25-2,6.4-2.81,3.09-1.19,5.74-1.67,6.67-1.44l-4.3,3.87c3.91-.35,7.7-1.54,11.44.38a9.94,9.94,0,0,0-5.49,3.42c-2.15,2.3-4.29,4.61-6.45,6.9-2.35,2.47-5,4.41-8.62,4.19a1.51,1.51,0,0,0-1,.5c-2.3,2.34-4.92,3.8-8.39,3.17l-2.32,6a19.29,19.29,0,0,1,9.75,0,1.15,1.15,0,0,0,1.45-.59c1-1.47,2.08-2.93,3.2-4.34,1.34-1.66,2.76-3.25,4.14-4.87a26.15,26.15,0,0,1-.13,3.7c-.44,6.92.54,13.54,4.18,19.61A24.31,24.31,0,0,1,89.25,96a48.15,48.15,0,0,1,3.18,18.55v1.66a15.53,15.53,0,0,0,1.69,0c3.81-.5,7.47.36,11.15,1.13,3.84.79,7.65,1.68,11.61,1.56,2.46-.08,4.55-.88,5.6-3.21a6.49,6.49,0,0,0-.49-6.92c-1.41-1.92-2-4.14-.76-6.3.85-1.52,1.91-2.78-.1-4.1,1.61-1.46,1.58-1.58.59-3.51-.88-1.71-.54-3.45,0-5.24a4.2,4.2,0,0,1,.54.25,4.9,4.9,0,0,0,5.32.5c1.72-.91,1.82-2.74,1.77-4.43-.21-6.58-2.17-12.51-6.93-17.25-1.74-1.74-2.56-3.64-1.94-6,.85-3.31-.15-6.09-2.12-8.74a14.45,14.45,0,0,1-2.3-4.44,46.56,46.56,0,0,0-4.43-10.06,7.7,7.7,0,0,0-1-1.1,47.69,47.69,0,0,1,5.1,1.41c1.59.61,3,1.62,4.58,2.31,3.52,1.55,7.23,1.55,11,1.12,1.3-.15,2.59-.45,3.88-.68A11.55,11.55,0,0,1,130,38.67c-1.87-2.16-3.68-4.36-5.35-6.33,1.87-1.24,4-2.47,5.94-4,2.24-1.8,3.73-4.44,3.83-5.82a29.91,29.91,0,0,1-4.45,1c-4.18.35-8.38.49-12.57.76-3.16.21-6.32.5-8.88,2.87a23.94,23.94,0,0,0,1.29-10.7,12.41,12.41,0,0,1-3.69,5.21,24.66,24.66,0,0,1-3,2.15c-2.91,1.73-5.85,3.4-8.92,5.18.23-3,.45-5.89.68-8.86-2.35,2.94-4.56,5.76-6.83,8.53A12.52,12.52,0,0,0,85.15,37a4.07,4.07,0,0,1-.72,2.56,4.52,4.52,0,0,0-.73,4c.16.5.7.87,1.07,1.3Zm-5.1,3.48L78,50.07c-.21-3.27-.2-6.55-.69-9.74a20.86,20.86,0,0,0-3.83-8.88c.11,4.23-1.72,7.83-3.34,11.53a48.34,48.34,0,0,0-2.9,8.6c-1,4.21.3,7.5,3.68,9.06,0,0,.06.14,0,.12-1.26,1.62-2.58,3.12-3.68,4.78s-1.93,3.69-1,5.88a1.15,1.15,0,0,1-.11.78c-1.2,2.75-2.4,5.49-3.66,8.21a6.93,6.93,0,0,1-1.26,1.38c.49-7.63.9-15-.66-22.26,1.76,7,1.53,14.14,1.19,21.31a.49.49,0,0,0,.27-.26c1.25-2.81,2.51-5.61,3.75-8.42a1,1,0,0,0,.07-.69c-1-2.77.22-5,1.73-7.14.85-1.2,1.85-2.29,2.7-3.34a20.79,20.79,0,0,1-2.26-2.12,8.19,8.19,0,0,1-1.24-7.43c.9-3.34,2.25-6.55,3.39-9.83.87-2.51,1.87-5,2.51-7.58a19,19,0,0,0,.06-4.46,27.17,27.17,0,0,1,5.76,19,46.58,46.58,0,0,0,4.29-4.25,3.9,3.9,0,0,0,.61-1.41c.38-1.28.73-2.57,1.09-3.86A7.29,7.29,0,0,0,85,37.24a13.56,13.56,0,0,1,3.42-9.35C89.26,27,90,26,90.92,24.82c-.57,0-.88,0-1.19,0-4.55.37-9.09.68-13.62,1.14A108.6,108.6,0,0,0,53.3,30.3C40.57,34.45,32,42.75,28.12,55.65a135.55,135.55,0,0,0-5.35,53.22,59.57,59.57,0,0,0,5,19.52,27.6,27.6,0,0,0,4.24,6.7c3.26-5.13,8.23-9,8.81-15.54.1-1.18,1-2.29,1.6-3.43-1.89-1.16-1.87-1.16-1.52-3.48a3.24,3.24,0,0,0-.14-1,17.11,17.11,0,0,1,.07-9.36,5,5,0,0,0-.55-4.86,16.69,16.69,0,0,1-.45-17A19.88,19.88,0,0,0,42.05,75a59,59,0,0,0,.46-7.74c.78.23.14,1,.21,1.55a17.8,17.8,0,0,1-2.68,12,6.54,6.54,0,0,0-.82,1.73c-1.83,6.11-1.34,11.82,3.05,16.9A18.36,18.36,0,0,0,41.34,112a1.83,1.83,0,0,1,0,.93c-.46,1.7-.23,2.2,1.46,2.71a7.53,7.53,0,0,0,1.88.3,11.48,11.48,0,0,0,8.72-3.58c1.83-1.79,3.61-3.63,5.47-5.39a3.34,3.34,0,0,1,1.63-.83c3.54-.67,7.1-1.27,10.63-1.89,0,0-.07-.11-.13-.14-7.06-3.34-13.73-7.77-21.95-8a3.36,3.36,0,0,1,2-3.27c.75-.37,1.44-.86,2.2-1.21,1.58-.74,3.18-1.43,4.94-2.21a8.5,8.5,0,0,0,5.74,1.94,33.89,33.89,0,0,0,5.56-.74c4.6-.86,9.18-2.49,13.81-.13a9.44,9.44,0,0,0-4.62-9.39,16.43,16.43,0,0,0-9.83-2c-1.52.13-3,.54-4.56.83,1-2.57,2-5.14,3.06-7.76A6.44,6.44,0,0,0,73,71.48c1-.61,1.79-1.46,2.74-2.12a3.28,3.28,0,0,1,1.64-.68,8.44,8.44,0,0,0,5.74-2.05c1.39-1.25,2.69-2.61,4-3.94,2.25-2.26,4.47-4.55,6.74-6.79a11.69,11.69,0,0,1,1.67-1.14,24.73,24.73,0,0,0-5.34-.18c-1.74.16-3.46.61-5.51,1,.86-1,1.47-1.71,2.13-2.4S88.12,51.93,89,51.1a31.69,31.69,0,0,0-12.33,5.06,2.34,2.34,0,0,1,0-.47c.69-2.5.88-5.21,2.94-7.15l3.24-3.26-.23-.21Zm12.4,85.44.85-.17c3.87-.8,5.54-2.78,5.57-6.7,0-3.7.52-7.19,3.88-9.61-3.28-1.08-6.52-.85-9.77-.71C92,122.45,91.39,128.09,91.94,133.9ZM49.21,95.31l.3.34c2.67-.22,5.11.62,7.55,1.5a2.23,2.23,0,0,0,1.23,0c1.46-.35,2.88-.9,4.35-1.11a7.26,7.26,0,0,0,5.76-4.58c-3.82.85-7.53,1-10.78-1.36a20.87,20.87,0,0,1-2,1.25c-1.7.82-3.46,1.52-5.13,2.41C49.92,94.07,49.62,94.79,49.21,95.31Zm45.36-67L99,25.72,99,25.48l-4-.54C94.8,26.09,94.7,27.07,94.57,28.3ZM60.92,98.35l-.13.29,4.78,2.19.15-.33ZM156.5,79.5a77,77,0,1,1-77-77A77,77,0,0,1,156.5,79.5Z"/><path class="cls-2" d="M84.64,45a1,1,0,0,0-1.61.21c-1.32,1.5-2.63,3-4.08,4.39S77.5,53.07,77,54.84c2.17-1,4.25-2,6.4-2.81,3.09-1.19,5.74-1.67,6.67-1.44l-4.3,3.87c3.91-.35,7.7-1.54,11.44.38a9.94,9.94,0,0,0-5.49,3.42c-2.15,2.3-4.29,4.61-6.45,6.9-2.35,2.47-5,4.41-8.62,4.19a1.51,1.51,0,0,0-1,.5c-2.3,2.34-4.92,3.8-8.39,3.17l-2.32,6a19.29,19.29,0,0,1,9.75,0,1.15,1.15,0,0,0,1.45-.59c1-1.47,2.08-2.93,3.2-4.34,1.34-1.66,2.76-3.25,4.14-4.87a26.15,26.15,0,0,1-.13,3.7c-.44,6.92.54,13.54,4.18,19.61A24.31,24.31,0,0,1,89.25,96a48.15,48.15,0,0,1,3.18,18.55v1.66a15.53,15.53,0,0,0,1.69,0c3.81-.5,7.47.36,11.15,1.13,3.84.79,7.65,1.68,11.61,1.56,2.46-.08,4.55-.88,5.6-3.21a6.49,6.49,0,0,0-.49-6.92c-1.41-1.92-2-4.14-.76-6.3.85-1.52,1.91-2.78-.1-4.1,1.61-1.46,1.58-1.58.59-3.51-.88-1.71-.54-3.45,0-5.24a4.2,4.2,0,0,1,.54.25,4.9,4.9,0,0,0,5.32.5c1.72-.91,1.82-2.74,1.77-4.43-.21-6.58-2.17-12.51-6.93-17.25-1.74-1.74-2.56-3.64-1.94-6,.85-3.31-.15-6.09-2.12-8.74a14.45,14.45,0,0,1-2.3-4.44,46.56,46.56,0,0,0-4.43-10.06,7.7,7.7,0,0,0-1-1.1,47.69,47.69,0,0,1,5.1,1.41c1.59.61,3,1.62,4.58,2.31,3.52,1.55,7.23,1.55,11,1.12,1.3-.15,2.59-.45,3.88-.68A11.55,11.55,0,0,1,130,38.67c-1.87-2.16-3.68-4.36-5.35-6.33,1.87-1.24,4-2.47,5.94-4,2.24-1.8,3.73-4.44,3.83-5.82a29.91,29.91,0,0,1-4.45,1c-4.18.35-8.38.49-12.57.76-3.16.21-6.32.5-8.88,2.87a23.94,23.94,0,0,0,1.29-10.7,12.41,12.41,0,0,1-3.69,5.21,24.66,24.66,0,0,1-3,2.15c-2.91,1.73-5.85,3.4-8.92,5.18.23-3,.45-5.89.68-8.86-2.35,2.94-4.56,5.76-6.83,8.53A12.52,12.52,0,0,0,85.15,37a4.07,4.07,0,0,1-.72,2.56,4.52,4.52,0,0,0-.73,4c.16.5.7.87,1.07,1.3Zm-5.1,3.48L78,50.07c-.21-3.27-.2-6.55-.69-9.74a20.86,20.86,0,0,0-3.83-8.88c.11,4.23-1.72,7.83-3.34,11.53a48.34,48.34,0,0,0-2.9,8.6c-1,4.21.3,7.5,3.68,9.06,0,0,.06.14,0,.12-1.26,1.62-2.58,3.12-3.68,4.78s-1.93,3.69-1,5.88a1.15,1.15,0,0,1-.11.78c-1.2,2.75-2.4,5.49-3.66,8.21a6.93,6.93,0,0,1-1.26,1.38c.49-7.63.9-15-.66-22.26,1.76,7,1.53,14.14,1.19,21.31a.49.49,0,0,0,.27-.26c1.25-2.81,2.51-5.61,3.75-8.42a1,1,0,0,0,.07-.69c-1-2.77.22-5,1.73-7.14.85-1.2,1.85-2.29,2.7-3.34a20.79,20.79,0,0,1-2.26-2.12,8.19,8.19,0,0,1-1.24-7.43c.9-3.34,2.25-6.55,3.39-9.83.87-2.51,1.87-5,2.51-7.58a19,19,0,0,0,.06-4.46,27.17,27.17,0,0,1,5.76,19,46.58,46.58,0,0,0,4.29-4.25,3.9,3.9,0,0,0,.61-1.41c.38-1.28.73-2.57,1.09-3.86A7.29,7.29,0,0,0,85,37.24a13.56,13.56,0,0,1,3.42-9.35C89.26,27,90,26,90.92,24.82c-.57,0-.88,0-1.19,0-4.55.37-9.09.68-13.62,1.14A108.6,108.6,0,0,0,53.3,30.3C40.57,34.45,32,42.75,28.12,55.65a135.55,135.55,0,0,0-5.35,53.22,59.57,59.57,0,0,0,5,19.52,27.6,27.6,0,0,0,4.24,6.7c3.26-5.13,8.23-9,8.81-15.54.1-1.18,1-2.29,1.6-3.43-1.89-1.16-1.87-1.16-1.52-3.48a3.24,3.24,0,0,0-.14-1,17.11,17.11,0,0,1,.07-9.36,5,5,0,0,0-.55-4.86,16.69,16.69,0,0,1-.45-17A19.88,19.88,0,0,0,42.05,75a59,59,0,0,0,.46-7.74c.78.23.14,1,.21,1.55a17.8,17.8,0,0,1-2.68,12,6.54,6.54,0,0,0-.82,1.73c-1.83,6.11-1.34,11.82,3.05,16.9A18.36,18.36,0,0,0,41.34,112a1.83,1.83,0,0,1,0,.93c-.46,1.7-.23,2.2,1.46,2.71a7.53,7.53,0,0,0,1.88.3,11.48,11.48,0,0,0,8.72-3.58c1.83-1.79,3.61-3.63,5.47-5.39a3.34,3.34,0,0,1,1.63-.83c3.54-.67,7.1-1.27,10.63-1.89,0,0-.07-.11-.13-.14-7.06-3.34-13.73-7.77-21.95-8a3.36,3.36,0,0,1,2-3.27c.75-.37,1.44-.86,2.2-1.21,1.58-.74,3.18-1.43,4.94-2.21a8.5,8.5,0,0,0,5.74,1.94,33.89,33.89,0,0,0,5.56-.74c4.6-.86,9.18-2.49,13.81-.13a9.44,9.44,0,0,0-4.62-9.39,16.43,16.43,0,0,0-9.83-2c-1.52.13-3,.54-4.56.83,1-2.57,2-5.14,3.06-7.76A6.44,6.44,0,0,0,73,71.48c1-.61,1.79-1.46,2.74-2.12a3.28,3.28,0,0,1,1.64-.68,8.44,8.44,0,0,0,5.74-2.05c1.39-1.25,2.69-2.61,4-3.94,2.25-2.26,4.47-4.55,6.74-6.79a11.69,11.69,0,0,1,1.67-1.14,24.73,24.73,0,0,0-5.34-.18c-1.74.16-3.46.61-5.51,1,.86-1,1.47-1.71,2.13-2.4S88.12,51.93,89,51.1a31.69,31.69,0,0,0-12.33,5.06,2.34,2.34,0,0,1,0-.47c.69-2.5.88-5.21,2.94-7.15l3.24-3.26-.23-.21Zm12.4,85.44.85-.17c3.87-.8,5.54-2.78,5.57-6.7,0-3.7.52-7.19,3.88-9.61-3.28-1.08-6.52-.85-9.77-.71C92,122.45,91.39,128.09,91.94,133.9ZM49.21,95.31l.3.34c2.67-.22,5.11.62,7.55,1.5a2.23,2.23,0,0,0,1.23,0c1.46-.35,2.88-.9,4.35-1.11a7.26,7.26,0,0,0,5.76-4.58c-3.82.85-7.53,1-10.78-1.36a20.87,20.87,0,0,1-2,1.25c-1.7.82-3.46,1.52-5.13,2.41C49.92,94.07,49.62,94.79,49.21,95.31Zm45.36-67L99,25.72,99,25.48l-4-.54C94.8,26.09,94.7,27.07,94.57,28.3ZM60.92,98.35l-.13.29,4.78,2.19.15-.33ZM156.5,79.5a77,77,0,1,1-77-77A77,77,0,0,1,156.5,79.5Z"/><path class="cls-2" d="M84.64,45a1,1,0,0,0-1.61.21c-1.32,1.5-2.63,3-4.08,4.39S77.5,53.07,77,54.84c2.17-1,4.25-2,6.4-2.81,3.09-1.19,5.74-1.67,6.67-1.44l-4.3,3.87c3.91-.35,7.7-1.54,11.44.38a9.94,9.94,0,0,0-5.49,3.42c-2.15,2.3-4.29,4.61-6.45,6.9-2.35,2.47-5,4.41-8.62,4.19a1.51,1.51,0,0,0-1,.5c-2.3,2.34-4.92,3.8-8.39,3.17l-2.32,6a19.29,19.29,0,0,1,9.75,0,1.15,1.15,0,0,0,1.45-.59c1-1.47,2.08-2.93,3.2-4.34,1.34-1.66,2.76-3.25,4.14-4.87a26.15,26.15,0,0,1-.13,3.7c-.44,6.92.54,13.54,4.18,19.61A24.31,24.31,0,0,1,89.25,96a48.15,48.15,0,0,1,3.18,18.55v1.66a15.53,15.53,0,0,0,1.69,0c3.81-.5,7.47.36,11.15,1.13,3.84.79,7.65,1.68,11.61,1.56,2.46-.08,4.55-.88,5.6-3.21a6.49,6.49,0,0,0-.49-6.92c-1.41-1.92-2-4.14-.76-6.3.85-1.52,1.91-2.78-.1-4.1,1.61-1.46,1.58-1.58.59-3.51-.88-1.71-.54-3.45,0-5.24a4.2,4.2,0,0,1,.54.25,4.9,4.9,0,0,0,5.32.5c1.72-.91,1.82-2.74,1.77-4.43-.21-6.58-2.17-12.51-6.93-17.25-1.74-1.74-2.56-3.64-1.94-6,.85-3.31-.15-6.09-2.12-8.74a14.45,14.45,0,0,1-2.3-4.44,46.56,46.56,0,0,0-4.43-10.06,7.7,7.7,0,0,0-1-1.1,47.69,47.69,0,0,1,5.1,1.41c1.59.61,3,1.62,4.58,2.31,3.52,1.55,7.23,1.55,11,1.12,1.3-.15,2.59-.45,3.88-.68A11.55,11.55,0,0,1,130,38.67c-1.87-2.16-3.68-4.36-5.35-6.33,1.87-1.24,4-2.47,5.94-4,2.24-1.8,3.73-4.44,3.83-5.82a29.91,29.91,0,0,1-4.45,1c-4.18.35-8.38.49-12.57.76-3.16.21-6.32.5-8.88,2.87a23.94,23.94,0,0,0,1.29-10.7,12.41,12.41,0,0,1-3.69,5.21,24.66,24.66,0,0,1-3,2.15c-2.91,1.73-5.85,3.4-8.92,5.18.23-3,.45-5.89.68-8.86-2.35,2.94-4.56,5.76-6.83,8.53A12.52,12.52,0,0,0,85.15,37a4.07,4.07,0,0,1-.72,2.56,4.52,4.52,0,0,0-.73,4c.16.5.7.87,1.07,1.3Zm-5.1,3.48L78,50.07c-.21-3.27-.2-6.55-.69-9.74a20.86,20.86,0,0,0-3.83-8.88c.11,4.23-1.72,7.83-3.34,11.53a48.34,48.34,0,0,0-2.9,8.6c-1,4.21.3,7.5,3.68,9.06,0,0,.06.14,0,.12-1.26,1.62-2.58,3.12-3.68,4.78s-1.93,3.69-1,5.88a1.15,1.15,0,0,1-.11.78c-1.2,2.75-2.4,5.49-3.66,8.21a6.93,6.93,0,0,1-1.26,1.38c.49-7.63.9-15-.66-22.26,1.76,7,1.53,14.14,1.19,21.31a.49.49,0,0,0,.27-.26c1.25-2.81,2.51-5.61,3.75-8.42a1,1,0,0,0,.07-.69c-1-2.77.22-5,1.73-7.14.85-1.2,1.85-2.29,2.7-3.34a20.79,20.79,0,0,1-2.26-2.12,8.19,8.19,0,0,1-1.24-7.43c.9-3.34,2.25-6.55,3.39-9.83.87-2.51,1.87-5,2.51-7.58a19,19,0,0,0,.06-4.46,27.17,27.17,0,0,1,5.76,19,46.58,46.58,0,0,0,4.29-4.25,3.9,3.9,0,0,0,.61-1.41c.38-1.28.73-2.57,1.09-3.86A7.29,7.29,0,0,0,85,37.24a13.56,13.56,0,0,1,3.42-9.35C89.26,27,90,26,90.92,24.82c-.57,0-.88,0-1.19,0-4.55.37-9.09.68-13.62,1.14A108.6,108.6,0,0,0,53.3,30.3C40.57,34.45,32,42.75,28.12,55.65a135.55,135.55,0,0,0-5.35,53.22,59.57,59.57,0,0,0,5,19.52,27.6,27.6,0,0,0,4.24,6.7c3.26-5.13,8.23-9,8.81-15.54.1-1.18,1-2.29,1.6-3.43-1.89-1.16-1.87-1.16-1.52-3.48a3.24,3.24,0,0,0-.14-1,17.11,17.11,0,0,1,.07-9.36,5,5,0,0,0-.55-4.86,16.69,16.69,0,0,1-.45-17A19.88,19.88,0,0,0,42.05,75a59,59,0,0,0,.46-7.74c.78.23.14,1,.21,1.55a17.8,17.8,0,0,1-2.68,12,6.54,6.54,0,0,0-.82,1.73c-1.83,6.11-1.34,11.82,3.05,16.9A18.36,18.36,0,0,0,41.34,112a1.83,1.83,0,0,1,0,.93c-.46,1.7-.23,2.2,1.46,2.71a7.53,7.53,0,0,0,1.88.3,11.48,11.48,0,0,0,8.72-3.58c1.83-1.79,3.61-3.63,5.47-5.39a3.34,3.34,0,0,1,1.63-.83c3.54-.67,7.1-1.27,10.63-1.89,0,0-.07-.11-.13-.14-7.06-3.34-13.73-7.77-21.95-8a3.36,3.36,0,0,1,2-3.27c.75-.37,1.44-.86,2.2-1.21,1.58-.74,3.18-1.43,4.94-2.21a8.5,8.5,0,0,0,5.74,1.94,33.89,33.89,0,0,0,5.56-.74c4.6-.86,9.18-2.49,13.81-.13a9.44,9.44,0,0,0-4.62-9.39,16.43,16.43,0,0,0-9.83-2c-1.52.13-3,.54-4.56.83,1-2.57,2-5.14,3.06-7.76A6.44,6.44,0,0,0,73,71.48c1-.61,1.79-1.46,2.74-2.12a3.28,3.28,0,0,1,1.64-.68,8.44,8.44,0,0,0,5.74-2.05c1.39-1.25,2.69-2.61,4-3.94,2.25-2.26,4.47-4.55,6.74-6.79a11.69,11.69,0,0,1,1.67-1.14,24.73,24.73,0,0,0-5.34-.18c-1.74.16-3.46.61-5.51,1,.86-1,1.47-1.71,2.13-2.4S88.12,51.93,89,51.1a31.69,31.69,0,0,0-12.33,5.06,2.34,2.34,0,0,1,0-.47c.69-2.5.88-5.21,2.94-7.15l3.24-3.26-.23-.21Zm12.4,85.44.85-.17c3.87-.8,5.54-2.78,5.57-6.7,0-3.7.52-7.19,3.88-9.61-3.28-1.08-6.52-.85-9.77-.71C92,122.45,91.39,128.09,91.94,133.9ZM49.21,95.31l.3.34c2.67-.22,5.11.62,7.55,1.5a2.23,2.23,0,0,0,1.23,0c1.46-.35,2.88-.9,4.35-1.11a7.26,7.26,0,0,0,5.76-4.58c-3.82.85-7.53,1-10.78-1.36a20.87,20.87,0,0,1-2,1.25c-1.7.82-3.46,1.52-5.13,2.41C49.92,94.07,49.62,94.79,49.21,95.31Zm45.36-67L99,25.72,99,25.48l-4-.54C94.8,26.09,94.7,27.07,94.57,28.3ZM60.92,98.35l-.13.29,4.78,2.19.15-.33ZM156.5,79.5a77,77,0,1,1-77-77A77,77,0,0,1,156.5,79.5Z"/><path class="cls-2" d="M84.64,45a1,1,0,0,0-1.61.21c-1.32,1.5-2.63,3-4.08,4.39S77.5,53.07,77,54.84c2.17-1,4.25-2,6.4-2.81,3.09-1.19,5.74-1.67,6.67-1.44l-4.3,3.87c3.91-.35,7.7-1.54,11.44.38a9.94,9.94,0,0,0-5.49,3.42c-2.15,2.3-4.29,4.61-6.45,6.9-2.35,2.47-5,4.41-8.62,4.19a1.51,1.51,0,0,0-1,.5c-2.3,2.34-4.92,3.8-8.39,3.17l-2.32,6a19.29,19.29,0,0,1,9.75,0,1.15,1.15,0,0,0,1.45-.59c1-1.47,2.08-2.93,3.2-4.34,1.34-1.66,2.76-3.25,4.14-4.87a26.15,26.15,0,0,1-.13,3.7c-.44,6.92.54,13.54,4.18,19.61A24.31,24.31,0,0,1,89.25,96a48.15,48.15,0,0,1,3.18,18.55v1.66a15.53,15.53,0,0,0,1.69,0c3.81-.5,7.47.36,11.15,1.13,3.84.79,7.65,1.68,11.61,1.56,2.46-.08,4.55-.88,5.6-3.21a6.49,6.49,0,0,0-.49-6.92c-1.41-1.92-2-4.14-.76-6.3.85-1.52,1.91-2.78-.1-4.1,1.61-1.46,1.58-1.58.59-3.51-.88-1.71-.54-3.45,0-5.24a4.2,4.2,0,0,1,.54.25,4.9,4.9,0,0,0,5.32.5c1.72-.91,1.82-2.74,1.77-4.43-.21-6.58-2.17-12.51-6.93-17.25-1.74-1.74-2.56-3.64-1.94-6,.85-3.31-.15-6.09-2.12-8.74a14.45,14.45,0,0,1-2.3-4.44,46.56,46.56,0,0,0-4.43-10.06,7.7,7.7,0,0,0-1-1.1,47.69,47.69,0,0,1,5.1,1.41c1.59.61,3,1.62,4.58,2.31,3.52,1.55,7.23,1.55,11,1.12,1.3-.15,2.59-.45,3.88-.68A11.55,11.55,0,0,1,130,38.67c-1.87-2.16-3.68-4.36-5.35-6.33,1.87-1.24,4-2.47,5.94-4,2.24-1.8,3.73-4.44,3.83-5.82a29.91,29.91,0,0,1-4.45,1c-4.18.35-8.38.49-12.57.76-3.16.21-6.32.5-8.88,2.87a23.94,23.94,0,0,0,1.29-10.7,12.41,12.41,0,0,1-3.69,5.21,24.66,24.66,0,0,1-3,2.15c-2.91,1.73-5.85,3.4-8.92,5.18.23-3,.45-5.89.68-8.86-2.35,2.94-4.56,5.76-6.83,8.53A12.52,12.52,0,0,0,85.15,37a4.07,4.07,0,0,1-.72,2.56,4.52,4.52,0,0,0-.73,4c.16.5.7.87,1.07,1.3Zm-5.1,3.48L78,50.07c-.21-3.27-.2-6.55-.69-9.74a20.86,20.86,0,0,0-3.83-8.88c.11,4.23-1.72,7.83-3.34,11.53a48.34,48.34,0,0,0-2.9,8.6c-1,4.21.3,7.5,3.68,9.06,0,0,.06.14,0,.12-1.26,1.62-2.58,3.12-3.68,4.78s-1.93,3.69-1,5.88a1.15,1.15,0,0,1-.11.78c-1.2,2.75-2.4,5.49-3.66,8.21a6.93,6.93,0,0,1-1.26,1.38c.49-7.63.9-15-.66-22.26,1.76,7,1.53,14.14,1.19,21.31a.49.49,0,0,0,.27-.26c1.25-2.81,2.51-5.61,3.75-8.42a1,1,0,0,0,.07-.69c-1-2.77.22-5,1.73-7.14.85-1.2,1.85-2.29,2.7-3.34a20.79,20.79,0,0,1-2.26-2.12,8.19,8.19,0,0,1-1.24-7.43c.9-3.34,2.25-6.55,3.39-9.83.87-2.51,1.87-5,2.51-7.58a19,19,0,0,0,.06-4.46,27.17,27.17,0,0,1,5.76,19,46.58,46.58,0,0,0,4.29-4.25,3.9,3.9,0,0,0,.61-1.41c.38-1.28.73-2.57,1.09-3.86A7.29,7.29,0,0,0,85,37.24a13.56,13.56,0,0,1,3.42-9.35C89.26,27,90,26,90.92,24.82c-.57,0-.88,0-1.19,0-4.55.37-9.09.68-13.62,1.14A108.6,108.6,0,0,0,53.3,30.3C40.57,34.45,32,42.75,28.12,55.65a135.55,135.55,0,0,0-5.35,53.22,59.57,59.57,0,0,0,5,19.52,27.6,27.6,0,0,0,4.24,6.7c3.26-5.13,8.23-9,8.81-15.54.1-1.18,1-2.29,1.6-3.43-1.89-1.16-1.87-1.16-1.52-3.48a3.24,3.24,0,0,0-.14-1,17.11,17.11,0,0,1,.07-9.36,5,5,0,0,0-.55-4.86,16.69,16.69,0,0,1-.45-17A19.88,19.88,0,0,0,42.05,75a59,59,0,0,0,.46-7.74c.78.23.14,1,.21,1.55a17.8,17.8,0,0,1-2.68,12,6.54,6.54,0,0,0-.82,1.73c-1.83,6.11-1.34,11.82,3.05,16.9A18.36,18.36,0,0,0,41.34,112a1.83,1.83,0,0,1,0,.93c-.46,1.7-.23,2.2,1.46,2.71a7.53,7.53,0,0,0,1.88.3,11.48,11.48,0,0,0,8.72-3.58c1.83-1.79,3.61-3.63,5.47-5.39a3.34,3.34,0,0,1,1.63-.83c3.54-.67,7.1-1.27,10.63-1.89,0,0-.07-.11-.13-.14-7.06-3.34-13.73-7.77-21.95-8a3.36,3.36,0,0,1,2-3.27c.75-.37,1.44-.86,2.2-1.21,1.58-.74,3.18-1.43,4.94-2.21a8.5,8.5,0,0,0,5.74,1.94,33.89,33.89,0,0,0,5.56-.74c4.6-.86,9.18-2.49,13.81-.13a9.44,9.44,0,0,0-4.62-9.39,16.43,16.43,0,0,0-9.83-2c-1.52.13-3,.54-4.56.83,1-2.57,2-5.14,3.06-7.76A6.44,6.44,0,0,0,73,71.48c1-.61,1.79-1.46,2.74-2.12a3.28,3.28,0,0,1,1.64-.68,8.44,8.44,0,0,0,5.74-2.05c1.39-1.25,2.69-2.61,4-3.94,2.25-2.26,4.47-4.55,6.74-6.79a11.69,11.69,0,0,1,1.67-1.14,24.73,24.73,0,0,0-5.34-.18c-1.74.16-3.46.61-5.51,1,.86-1,1.47-1.71,2.13-2.4S88.12,51.93,89,51.1a31.69,31.69,0,0,0-12.33,5.06,2.34,2.34,0,0,1,0-.47c.69-2.5.88-5.21,2.94-7.15l3.24-3.26-.23-.21Zm12.4,85.44.85-.17c3.87-.8,5.54-2.78,5.57-6.7,0-3.7.52-7.19,3.88-9.61-3.28-1.08-6.52-.85-9.77-.71C92,122.45,91.39,128.09,91.94,133.9ZM49.21,95.31l.3.34c2.67-.22,5.11.62,7.55,1.5a2.23,2.23,0,0,0,1.23,0c1.46-.35,2.88-.9,4.35-1.11a7.26,7.26,0,0,0,5.76-4.58c-3.82.85-7.53,1-10.78-1.36a20.87,20.87,0,0,1-2,1.25c-1.7.82-3.46,1.52-5.13,2.41C49.92,94.07,49.62,94.79,49.21,95.31Zm45.36-67L99,25.72,99,25.48l-4-.54C94.8,26.09,94.7,27.07,94.57,28.3ZM60.92,98.35l-.13.29,4.78,2.19.15-.33ZM156.5,79.5a77,77,0,1,1-77-77A77,77,0,0,1,156.5,79.5Z"/><path class="cls-3" d="M84.64,45a1,1,0,0,0-1.61.21c-1.32,1.5-2.63,3-4.08,4.39S77.5,53.07,77,54.84c2.17-1,4.25-2,6.4-2.81,3.09-1.19,5.74-1.67,6.67-1.44l-4.3,3.87c3.91-.35,7.7-1.54,11.44.38a9.94,9.94,0,0,0-5.49,3.42c-2.15,2.3-4.29,4.61-6.45,6.9-2.35,2.47-5,4.41-8.62,4.19a1.51,1.51,0,0,0-1,.5c-2.3,2.34-4.92,3.8-8.39,3.17l-2.32,6a19.29,19.29,0,0,1,9.75,0,1.15,1.15,0,0,0,1.45-.59c1-1.47,2.08-2.93,3.2-4.34,1.34-1.66,2.76-3.25,4.14-4.87a26.15,26.15,0,0,1-.13,3.7c-.44,6.92.54,13.54,4.18,19.61A24.31,24.31,0,0,1,89.25,96a48.15,48.15,0,0,1,3.18,18.55v1.66a15.53,15.53,0,0,0,1.69,0c3.81-.5,7.47.36,11.15,1.13,3.84.79,7.65,1.68,11.61,1.56,2.46-.08,4.55-.88,5.6-3.21a6.49,6.49,0,0,0-.49-6.92c-1.41-1.92-2-4.14-.76-6.3.85-1.52,1.91-2.78-.1-4.1,1.61-1.46,1.58-1.58.59-3.51-.88-1.71-.54-3.45,0-5.24a4.2,4.2,0,0,1,.54.25,4.9,4.9,0,0,0,5.32.5c1.72-.91,1.82-2.74,1.77-4.43-.21-6.58-2.17-12.51-6.93-17.25-1.74-1.74-2.56-3.64-1.94-6,.85-3.31-.15-6.09-2.12-8.74a14.45,14.45,0,0,1-2.3-4.44,46.56,46.56,0,0,0-4.43-10.06,7.7,7.7,0,0,0-1-1.1,47.69,47.69,0,0,1,5.1,1.41c1.59.61,3,1.62,4.58,2.31,3.52,1.55,7.23,1.55,11,1.12,1.3-.15,2.59-.45,3.88-.68A11.55,11.55,0,0,1,130,38.67c-1.87-2.16-3.68-4.36-5.35-6.33,1.87-1.24,4-2.47,5.94-4,2.24-1.8,3.73-4.44,3.83-5.82a29.91,29.91,0,0,1-4.45,1c-4.18.35-8.38.49-12.57.76-3.16.21-6.32.5-8.88,2.87a23.94,23.94,0,0,0,1.29-10.7,12.41,12.41,0,0,1-3.69,5.21,24.66,24.66,0,0,1-3,2.15c-2.91,1.73-5.85,3.4-8.92,5.18.23-3,.45-5.89.68-8.86-2.35,2.94-4.56,5.76-6.83,8.53A12.52,12.52,0,0,0,85.15,37a4.07,4.07,0,0,1-.72,2.56,4.52,4.52,0,0,0-.73,4c.16.5.7.87,1.07,1.3Zm-5.1,3.48L78,50.07c-.21-3.27-.2-6.55-.69-9.74a20.86,20.86,0,0,0-3.83-8.88c.11,4.23-1.72,7.83-3.34,11.53a48.34,48.34,0,0,0-2.9,8.6c-1,4.21.3,7.5,3.68,9.06,0,0,.06.14,0,.12-1.26,1.62-2.58,3.12-3.68,4.78s-1.93,3.69-1,5.88a1.15,1.15,0,0,1-.11.78c-1.2,2.75-2.4,5.49-3.66,8.21a6.93,6.93,0,0,1-1.26,1.38c.49-7.63.9-15-.66-22.26,1.76,7,1.53,14.14,1.19,21.31a.49.49,0,0,0,.27-.26c1.25-2.81,2.51-5.61,3.75-8.42a1,1,0,0,0,.07-.69c-1-2.77.22-5,1.73-7.14.85-1.2,1.85-2.29,2.7-3.34a20.79,20.79,0,0,1-2.26-2.12,8.19,8.19,0,0,1-1.24-7.43c.9-3.34,2.25-6.55,3.39-9.83.87-2.51,1.87-5,2.51-7.58a19,19,0,0,0,.06-4.46,27.17,27.17,0,0,1,5.76,19,46.58,46.58,0,0,0,4.29-4.25,3.9,3.9,0,0,0,.61-1.41c.38-1.28.73-2.57,1.09-3.86A7.29,7.29,0,0,0,85,37.24a13.56,13.56,0,0,1,3.42-9.35C89.26,27,90,26,90.92,24.82c-.57,0-.88,0-1.19,0-4.55.37-9.09.68-13.62,1.14A108.6,108.6,0,0,0,53.3,30.3C40.57,34.45,32,42.75,28.12,55.65a135.55,135.55,0,0,0-5.35,53.22,59.57,59.57,0,0,0,5,19.52,27.6,27.6,0,0,0,4.24,6.7c3.26-5.13,8.23-9,8.81-15.54.1-1.18,1-2.29,1.6-3.43-1.89-1.16-1.87-1.16-1.52-3.48a3.24,3.24,0,0,0-.14-1,17.11,17.11,0,0,1,.07-9.36,5,5,0,0,0-.55-4.86,16.69,16.69,0,0,1-.45-17A19.88,19.88,0,0,0,42.05,75a59,59,0,0,0,.46-7.74c.78.23.14,1,.21,1.55a17.8,17.8,0,0,1-2.68,12,6.54,6.54,0,0,0-.82,1.73c-1.83,6.11-1.34,11.82,3.05,16.9A18.36,18.36,0,0,0,41.34,112a1.83,1.83,0,0,1,0,.93c-.46,1.7-.23,2.2,1.46,2.71a7.53,7.53,0,0,0,1.88.3,11.48,11.48,0,0,0,8.72-3.58c1.83-1.79,3.61-3.63,5.47-5.39a3.34,3.34,0,0,1,1.63-.83c3.54-.67,7.1-1.27,10.63-1.89,0,0-.07-.11-.13-.14-7.06-3.34-13.73-7.77-21.95-8a3.36,3.36,0,0,1,2-3.27c.75-.37,1.44-.86,2.2-1.21,1.58-.74,3.18-1.43,4.94-2.21a8.5,8.5,0,0,0,5.74,1.94,33.89,33.89,0,0,0,5.56-.74c4.6-.86,9.18-2.49,13.81-.13a9.44,9.44,0,0,0-4.62-9.39,16.43,16.43,0,0,0-9.83-2c-1.52.13-3,.54-4.56.83,1-2.57,2-5.14,3.06-7.76A6.44,6.44,0,0,0,73,71.48c1-.61,1.79-1.46,2.74-2.12a3.28,3.28,0,0,1,1.64-.68,8.44,8.44,0,0,0,5.74-2.05c1.39-1.25,2.69-2.61,4-3.94,2.25-2.26,4.47-4.55,6.74-6.79a11.69,11.69,0,0,1,1.67-1.14,24.73,24.73,0,0,0-5.34-.18c-1.74.16-3.46.61-5.51,1,.86-1,1.47-1.71,2.13-2.4S88.12,51.93,89,51.1a31.69,31.69,0,0,0-12.33,5.06,2.34,2.34,0,0,1,0-.47c.69-2.5.88-5.21,2.94-7.15l3.24-3.26-.23-.21Zm12.4,85.44.85-.17c3.87-.8,5.54-2.78,5.57-6.7,0-3.7.52-7.19,3.88-9.61-3.28-1.08-6.52-.85-9.77-.71C92,122.45,91.39,128.09,91.94,133.9ZM49.21,95.31l.3.34c2.67-.22,5.11.62,7.55,1.5a2.23,2.23,0,0,0,1.23,0c1.46-.35,2.88-.9,4.35-1.11a7.26,7.26,0,0,0,5.76-4.58c-3.82.85-7.53,1-10.78-1.36a20.87,20.87,0,0,1-2,1.25c-1.7.82-3.46,1.52-5.13,2.41C49.92,94.07,49.62,94.79,49.21,95.31Zm45.36-67L99,25.72,99,25.48l-4-.54C94.8,26.09,94.7,27.07,94.57,28.3ZM60.92,98.35l-.13.29,4.78,2.19.15-.33ZM156.5,79.5a77,77,0,1,1-77-77A77,77,0,0,1,156.5,79.5Z"/></g></g></svg>