<svg xmlns="http://www.w3.org/2000/svg" viewBox="0 0 125.32 141.5"><defs><style>.cls-1{fill:#fff;}</style></defs><title>Asset 4</title><g id="Layer_2" data-name="Layer 2"><g id="Layer_1-2" data-name="Layer 1"><path class="cls-1" d="M125.32,141.5c-.49-4.79-3.67-7.76-7.21-10.4-2.49-1.87-5.13-3.54-7.78-5.19a18.69,18.69,0,0,1-5.11-4.47c-3-4-6.15-8.06-9.16-12.14a9.63,9.63,0,0,1-1.75-4.89,13.17,13.17,0,0,0-1.71-4.14c-.33-.64-1.83-.44-2.8.15-4.67,2.85-9.33,5.73-14.06,8.48-1.92,1.12-4,1.95-6,2.9a1.26,1.26,0,0,1-.68.13,132.58,132.58,0,0,0,20.16-11.78c-.07-.13-.1-.25-.13-.25-3.62-.4-6.22-2.55-8.65-5-1.14-1.13-2.29-2.24-3.37-3.42A4.5,4.5,0,0,0,74.17,90c-3-.4-5.91-.94-8.88-1.38a1.9,1.9,0,0,0-1.35.2c-3.86,3.28-8.52,4.2-13.35,4.67a5.68,5.68,0,0,0-5.15,5.29c0,.22.24.46.29.55a4,4,0,0,0-.56,1.32c-.08,4.08-.1,8.15-.13,12.23,0,1.55,0,3.1,0,4.93l7.65-.67,0,.18-7.52.87c-.12,2-.2,4-.38,6.1-.4,4.74-2,9.19-3.39,13.7-.35,1.18-.7,2.36-1.06,3.54Z"/><path class="cls-1" d="M38,141.5c.25-.75.46-1.51.76-2.24,2.81-6.67,4-13.7,4.5-20.87a4.31,4.31,0,0,0,0-.54c-3.18-.54-6-1.68-6.88-5.23-2.14,2.56-2.61,6.44-1.46,11.43-2.08,1.33-4.23,2.55-6.23,4A29.83,29.83,0,0,0,17.8,141.5Z"/><path class="cls-1" d="M56,32l1.51,1.62c.21-3.28.2-6.55.69-9.75A20.86,20.86,0,0,1,62.05,15c-.11,4.23,1.72,7.83,3.34,11.53a49.44,49.44,0,0,1,2.9,8.6c1,4.21-.3,7.5-3.69,9.06,0,0,0,.14,0,.12,1.26,1.62,2.58,3.13,3.68,4.78s1.93,3.7,1,5.88a1.18,1.18,0,0,0,.11.79c1.2,2.74,2.39,5.48,3.66,8.2a6.93,6.93,0,0,0,1.26,1.38c-.49-7.63-.9-15,.66-22.26-1.76,7-1.54,14.14-1.19,21.32a.51.51,0,0,1-.27-.27c-1.25-2.8-2.51-5.61-3.75-8.42a1,1,0,0,1-.07-.69c1-2.76-.22-5-1.73-7.13-.85-1.2-1.85-2.3-2.7-3.34a19.87,19.87,0,0,0,2.25-2.13A8.16,8.16,0,0,0,68.75,35c-.9-3.34-2.25-6.55-3.39-9.82-.88-2.52-1.87-5-2.51-7.59a18.94,18.94,0,0,1-.07-4.46,27.23,27.23,0,0,0-5.75,19,45.36,45.36,0,0,1-4.29-4.25,3.83,3.83,0,0,1-.61-1.41c-.38-1.28-.73-2.57-1.09-3.85a7.48,7.48,0,0,1-.48-1.78,13.56,13.56,0,0,0-3.42-9.35c-.84-.93-1.59-1.93-2.5-3.06.57,0,.88,0,1.19,0,4.54.37,9.09.68,13.62,1.14a108.6,108.6,0,0,1,22.81,4.33C95,18,103.57,26.3,107.44,39.2a135.75,135.75,0,0,1,5.35,53.22,59.69,59.69,0,0,1-5,19.53,27.85,27.85,0,0,1-4.24,6.69c-3.26-5.13-8.23-9-8.81-15.53-.1-1.19-1-2.29-1.6-3.44C95,98.51,95,98.51,94.64,96.2a3.26,3.26,0,0,1,.14-1.06,17.07,17.07,0,0,0-.07-9.35,5,5,0,0,1,.55-4.87,16.69,16.69,0,0,0,.45-17,20,20,0,0,1-2.2-5.38,59.26,59.26,0,0,1-.46-7.75c-.78.23-.14,1-.21,1.55a17.73,17.73,0,0,0,2.68,12,6.69,6.69,0,0,1,.82,1.73c1.83,6.11,1.34,11.82-3,16.9a18.38,18.38,0,0,1,.93,12.56,1.79,1.79,0,0,0,0,.92c.46,1.7.22,2.2-1.46,2.71a8,8,0,0,1-1.88.31,11.53,11.53,0,0,1-8.73-3.59c-1.82-1.78-3.6-3.63-5.46-5.39a3.34,3.34,0,0,0-1.63-.83C71.53,89,68,88.39,64.44,87.77c0,0,.07-.11.13-.14,7.06-3.34,13.73-7.77,22-7.95a3.37,3.37,0,0,0-2-3.27c-.75-.36-1.44-.86-2.2-1.21-1.58-.74-3.18-1.43-4.94-2.21a8.5,8.5,0,0,1-5.74,1.94,33.89,33.89,0,0,1-5.56-.74c-4.6-.86-9.18-2.49-13.81-.13a9.44,9.44,0,0,1,4.61-9.39,16.54,16.54,0,0,1,9.84-2c1.52.13,3,.55,4.56.84L68.2,55.76A6.44,6.44,0,0,1,62.58,55c-1-.61-1.79-1.46-2.74-2.11a3.21,3.21,0,0,0-1.64-.69,8.46,8.46,0,0,1-5.74-2c-1.39-1.26-2.69-2.61-4-3.94C46.2,44,44,41.7,41.71,39.46A10.25,10.25,0,0,0,40,38.32a24.73,24.73,0,0,1,5.34-.19c1.74.16,3.46.61,5.51,1-.86-1-1.47-1.71-2.13-2.39s-1.33-1.25-2.22-2.09a31.84,31.84,0,0,1,12.33,5.06,2.35,2.35,0,0,0,0-.47c-.69-2.5-.88-5.21-2.94-7.15ZM91.36,93.2,91.5,93l-3.35-2.23,2.73-1.54,0-.09-4.66,1.54Zm.19-4.81c1,.49.51,1.41.56,2.07A20,20,0,0,1,92,92.9h.39V87.62ZM80.79,36h-.21l-.45,7.54.16,0Q80.54,39.75,80.79,36Zm2.38,35.12.19,0c.27-2,.55-4.05.82-6.07L84,65C83.72,67,83.45,69.07,83.17,71.09ZM90.3,55.26l-.25-.13-2.24,4.49.24.15ZM85.36,68.92h-.17v5.73l.17,0Z"/><path class="cls-1" d="M50.38,28.39c.37-.44.91-.81,1.07-1.31a4.52,4.52,0,0,0-.73-4A4.07,4.07,0,0,1,50,20.53a12.52,12.52,0,0,0-2.86-8.32c-2.27-2.77-4.48-5.59-6.83-8.53.23,3,.45,5.83.68,8.86-3.07-1.78-6-3.44-8.92-5.18a24.66,24.66,0,0,1-3-2.15A12.35,12.35,0,0,1,25.36,0a23.94,23.94,0,0,0,1.29,10.7C24.1,8.33,20.94,8,17.77,7.84c-4.19-.27-8.39-.42-12.57-.76a31.24,31.24,0,0,1-4.45-1c.1,1.38,1.59,4,3.84,5.82,1.9,1.54,4.06,2.76,5.93,4-1.67,2-3.48,4.17-5.35,6.33A11.55,11.55,0,0,1,0,26c1.29.23,2.58.53,3.88.68,3.73.43,7.44.44,11-1.11,1.56-.69,3-1.71,4.58-2.32a50.15,50.15,0,0,1,5.1-1.41,7.7,7.7,0,0,0-1,1.11A46.83,46.83,0,0,0,19.09,33a14.51,14.51,0,0,1-2.3,4.43c-2,2.66-3,5.43-2.12,8.74.62,2.4-.2,4.3-1.94,6C8,56.94,6,62.87,5.8,69.45c0,1.69.06,3.52,1.77,4.43a4.88,4.88,0,0,0,5.32-.5,4.2,4.2,0,0,1,.54-.25c.54,1.79.88,3.53,0,5.24-1,1.93-1,2,.59,3.52-2,1.31-.95,2.57-.1,4.09,1.23,2.17.65,4.38-.76,6.3a6.47,6.47,0,0,0-.48,6.92c1,2.33,3.13,3.13,5.59,3.21,4,.12,7.78-.77,11.61-1.56S37.22,99.23,41,99.72a13.35,13.35,0,0,0,1.69,0V98.07A48.37,48.37,0,0,1,45.9,79.52a24.31,24.31,0,0,1,1.68-3.44C51.22,70,52.2,63.39,51.76,56.47a27.73,27.73,0,0,1-.13-3.7c1.38,1.62,2.8,3.21,4.14,4.88,1.12,1.4,2.17,2.87,3.2,4.34a1.15,1.15,0,0,0,1.45.58,19.29,19.29,0,0,1,9.75,0l-2.32-6c-3.47.63-6.09-.82-8.38-3.16a1.52,1.52,0,0,0-1-.51c-3.67.22-6.27-1.71-8.62-4.19-2.16-2.28-4.29-4.6-6.45-6.9a9.94,9.94,0,0,0-5.49-3.42c3.74-1.92,7.53-.73,11.44-.38l-4.3-3.86c.93-.24,3.58.25,6.67,1.43,2.16.82,4.23,1.85,6.4,2.82-.48-1.78-.34-3.77-1.93-5.27s-2.76-2.89-4.08-4.38a1,1,0,0,0-1.61-.22,8.49,8.49,0,0,1-1.86.67c-3.66.42-6.8-1.08-10-2.72.14-.1.19-.15.21-.14.54.24,1.07.5,1.62.74C43.67,28.46,46.85,29.75,50.38,28.39Z"/><path class="cls-1" d="M43.21,117.45c.55-5.81,0-11.45-.53-17.19-3.25-.13-6.49-.37-9.77.71,3.36,2.43,3.86,5.92,3.88,9.61,0,3.93,1.7,5.9,5.57,6.71Z"/><path class="cls-1" d="M85.94,78.86c-.41-.52-.71-1.24-1.24-1.52-1.67-.89-3.43-1.58-5.13-2.4-.68-.33-1.28-.79-2-1.25-3.25,2.31-7,2.2-10.78,1.35a7.26,7.26,0,0,0,5.76,4.58c1.47.21,2.9.76,4.35,1.11a2.23,2.23,0,0,0,1.23,0c2.44-.88,4.88-1.72,7.55-1.5Z"/><path class="cls-1" d="M40.58,11.85c-.13-1.23-.23-2.21-.35-3.36L36.2,9l-.07.24Z"/><path class="cls-1" d="M74.23,81.9l-4.8,2.16.15.32,4.78-2.19Z"/><path class="cls-1" d="M56,32l-3.1-3.39-.23.22,3.24,3.25Z"/><path class="cls-1" d="M86.17,90.66l5.19,2.54L91.5,93l-3.35-2.23,2.73-1.54,0-.09Z"/><path class="cls-1" d="M92.37,87.62l-.82.77c1,.49.51,1.41.56,2.07A20,20,0,0,1,92,92.9h.39Z"/><path class="cls-1" d="M80.29,43.53q.25-3.78.5-7.56h-.21l-.45,7.54Z"/><path class="cls-1" d="M84,65c-.28,2-.55,4.06-.83,6.08l.19,0c.27-2,.55-4.05.82-6.07Z"/><path class="cls-1" d="M88.05,59.77l2.25-4.51-.25-.13-2.24,4.49Z"/><path class="cls-1" d="M85.36,74.68V68.92h-.17v5.73Z"/><path class="cls-1" d="M50.38,28.39c-3.53,1.36-6.71.07-9.87-1.31-.55-.24-1.08-.5-1.62-.74,0,0-.07,0-.21.14,3.17,1.64,6.31,3.14,10,2.72a8.49,8.49,0,0,0,1.86-.67Z"/></g></g></svg>